<svg xmlns="http://www.w3.org/2000/svg" xmlns:xlink="http://www.w3.org/1999/xlink" width="500" zoomAndPan="magnify" viewBox="0 0 375 374.999991" height="500" preserveAspectRatio="xMidYMid meet" version="1.0"><defs><g/></defs><rect x="-37.5" width="450" fill="#ffffff" y="-37.499999" height="449.999989" fill-opacity="1"/><rect x="-37.5" width="450" fill="#ffffff" y="-37.499999" height="449.999989" fill-opacity="1"/><rect x="-37.5" width="450" fill="#ffffff" y="-37.499999" height="449.999989" fill-opacity="1"/><g fill="#a6a6a6" fill-opacity="1"><g transform="translate(117.314046, 195.86338)"><g><path d="M 16.765625 0.5 C 16.503906 0.46875 16.234375 0.4375 15.953125 0.40625 C 15.679688 0.382812 15.414062 0.351562 15.15625 0.3125 C 13.394531 -0.0078125 11.722656 -0.570312 10.140625 -1.375 C 8.554688 -2.1875 7.164062 -3.191406 5.96875 -4.390625 C 4.78125 -5.585938 3.835938 -6.953125 3.140625 -8.484375 C 2.441406 -10.023438 2.09375 -11.6875 2.09375 -13.46875 C 2.09375 -15.5625 2.484375 -17.472656 3.265625 -19.203125 C 4.054688 -20.929688 5.140625 -22.421875 6.515625 -23.671875 C 7.898438 -24.929688 9.535156 -25.898438 11.421875 -26.578125 C 13.304688 -27.265625 15.351562 -27.609375 17.5625 -27.609375 C 18.96875 -27.609375 20.3125 -27.453125 21.59375 -27.140625 C 22.882812 -26.828125 24.085938 -26.382812 25.203125 -25.8125 C 26.316406 -25.25 27.328125 -24.550781 28.234375 -23.71875 C 29.148438 -22.882812 29.925781 -21.953125 30.5625 -20.921875 C 31.207031 -19.898438 31.707031 -18.773438 32.0625 -17.546875 C 32.425781 -16.316406 32.609375 -15.019531 32.609375 -13.65625 C 32.609375 -12.144531 32.351562 -10.722656 31.84375 -9.390625 C 31.332031 -8.054688 30.628906 -6.820312 29.734375 -5.6875 C 28.835938 -4.5625 27.78125 -3.539062 26.5625 -2.625 C 25.351562 -1.707031 24.050781 -0.914062 22.65625 -0.25 C 23.207031 0.15625 23.75 0.5625 24.28125 0.96875 C 24.820312 1.375 25.328125 1.757812 25.796875 2.125 C 26.273438 2.488281 26.695312 2.816406 27.0625 3.109375 C 27.4375 3.398438 27.738281 3.640625 27.96875 3.828125 C 28.101562 3.929688 28.191406 4 28.234375 4.03125 C 28.273438 4.070312 28.3125 4.097656 28.34375 4.109375 C 28.875 4.546875 29.394531 4.945312 29.90625 5.3125 C 30.414062 5.675781 30.894531 5.945312 31.34375 6.125 C 31.40625 6.15625 31.460938 6.175781 31.515625 6.1875 C 31.578125 6.195312 31.65625 6.21875 31.75 6.25 L 31.71875 6.25 C 31.914062 6.28125 32.117188 6.320312 32.328125 6.375 C 32.546875 6.4375 32.75 6.503906 32.9375 6.578125 C 33.125 6.648438 33.269531 6.71875 33.375 6.78125 C 33.488281 6.851562 33.546875 6.929688 33.546875 7.015625 C 33.546875 7.253906 33.445312 7.4375 33.25 7.5625 C 33.0625 7.695312 32.8125 7.789062 32.5 7.84375 C 32.195312 7.90625 31.863281 7.941406 31.5 7.953125 C 31.144531 7.972656 30.804688 7.984375 30.484375 7.984375 C 29.441406 7.984375 28.5 7.859375 27.65625 7.609375 C 26.820312 7.367188 26.007812 7.015625 25.21875 6.546875 C 24.613281 6.191406 24.050781 5.832031 23.53125 5.46875 C 23.007812 5.113281 22.507812 4.75 22.03125 4.375 C 21.5625 4.007812 21.097656 3.632812 20.640625 3.25 C 20.179688 2.863281 19.710938 2.453125 19.234375 2.015625 C 18.828125 1.648438 18.421875 1.316406 18.015625 1.015625 C 17.617188 0.722656 17.203125 0.550781 16.765625 0.5 Z M 7.65625 -14.21875 C 7.65625 -13.15625 7.765625 -12.097656 7.984375 -11.046875 C 8.210938 -10.003906 8.535156 -9.003906 8.953125 -8.046875 C 9.378906 -7.097656 9.898438 -6.21875 10.515625 -5.40625 C 11.128906 -4.601562 11.832031 -3.90625 12.625 -3.3125 C 13.414062 -2.726562 14.285156 -2.265625 15.234375 -1.921875 C 16.179688 -1.585938 17.203125 -1.421875 18.296875 -1.421875 C 19.523438 -1.421875 20.679688 -1.691406 21.765625 -2.234375 C 22.847656 -2.785156 23.785156 -3.5625 24.578125 -4.5625 C 25.367188 -5.570312 25.992188 -6.785156 26.453125 -8.203125 C 26.910156 -9.628906 27.140625 -11.210938 27.140625 -12.953125 C 27.140625 -14.535156 26.921875 -16.070312 26.484375 -17.5625 C 26.054688 -19.0625 25.410156 -20.394531 24.546875 -21.5625 C 23.691406 -22.738281 22.617188 -23.703125 21.328125 -24.453125 C 20.046875 -25.210938 18.546875 -25.660156 16.828125 -25.796875 C 15.421875 -25.796875 14.148438 -25.484375 13.015625 -24.859375 C 11.878906 -24.242188 10.914062 -23.40625 10.125 -22.34375 C 9.332031 -21.28125 8.722656 -20.050781 8.296875 -18.65625 C 7.867188 -17.257812 7.65625 -15.78125 7.65625 -14.21875 Z M 7.65625 -14.21875 "/></g></g></g><g fill="#a6a6a6" fill-opacity="1"><g transform="translate(151.035334, 195.86338)"><g><path d="M 2.46875 -2.46875 C 2.46875 -2.90625 2.550781 -3.316406 2.71875 -3.703125 C 2.882812 -4.085938 3.113281 -4.425781 3.40625 -4.71875 C 3.695312 -5.007812 4.03125 -5.238281 4.40625 -5.40625 C 4.789062 -5.570312 5.207031 -5.65625 5.65625 -5.65625 C 6.082031 -5.65625 6.488281 -5.570312 6.875 -5.40625 C 7.269531 -5.238281 7.613281 -5.007812 7.90625 -4.71875 C 8.195312 -4.425781 8.425781 -4.085938 8.59375 -3.703125 C 8.757812 -3.316406 8.84375 -2.90625 8.84375 -2.46875 C 8.84375 -2.03125 8.757812 -1.617188 8.59375 -1.234375 C 8.425781 -0.859375 8.195312 -0.523438 7.90625 -0.234375 C 7.613281 0.0546875 7.269531 0.285156 6.875 0.453125 C 6.488281 0.617188 6.082031 0.703125 5.65625 0.703125 C 5.207031 0.703125 4.789062 0.617188 4.40625 0.453125 C 4.03125 0.285156 3.695312 0.0546875 3.40625 -0.234375 C 3.113281 -0.523438 2.882812 -0.859375 2.71875 -1.234375 C 2.550781 -1.617188 2.46875 -2.03125 2.46875 -2.46875 Z M 2.46875 -2.46875 "/></g></g></g><g fill="#a6a6a6" fill-opacity="1"><g transform="translate(161.371857, 195.86338)"><g><path d="M 11.578125 -23.9375 C 11.578125 -24.207031 11.519531 -24.359375 11.40625 -24.390625 C 11.300781 -24.421875 11.175781 -24.445312 11.03125 -24.46875 L 4.578125 -24.46875 C 4.097656 -24.363281 3.722656 -24.175781 3.453125 -23.90625 C 3.191406 -23.632812 2.984375 -23.3125 2.828125 -22.9375 C 2.679688 -22.570312 2.566406 -22.175781 2.484375 -21.75 C 2.410156 -21.332031 2.332031 -20.925781 2.25 -20.53125 C 2.21875 -20.414062 2.191406 -20.273438 2.171875 -20.109375 C 2.148438 -19.953125 2.125 -19.863281 2.09375 -19.84375 C 2.070312 -19.800781 2.03125 -19.78125 1.96875 -19.78125 L 1.328125 -19.78125 C 1.253906 -19.78125 1.21875 -19.804688 1.21875 -19.859375 L 1.21875 -20.484375 L 1.921875 -27 C 1.953125 -27.144531 2.007812 -27.28125 2.09375 -27.40625 C 2.1875 -27.53125 2.328125 -27.59375 2.515625 -27.59375 C 2.597656 -27.59375 2.679688 -27.566406 2.765625 -27.515625 C 2.847656 -27.460938 2.925781 -27.398438 3 -27.328125 C 3.082031 -27.265625 3.15625 -27.203125 3.21875 -27.140625 C 3.289062 -27.078125 3.367188 -27.03125 3.453125 -27 C 3.597656 -26.9375 3.738281 -26.894531 3.875 -26.875 C 4.007812 -26.851562 4.160156 -26.84375 4.328125 -26.84375 L 24.28125 -26.84375 C 24.445312 -26.84375 24.59375 -26.851562 24.71875 -26.875 C 24.851562 -26.894531 25 -26.9375 25.15625 -27 C 25.226562 -27.03125 25.300781 -27.078125 25.375 -27.140625 C 25.445312 -27.203125 25.519531 -27.265625 25.59375 -27.328125 C 25.664062 -27.398438 25.742188 -27.460938 25.828125 -27.515625 C 25.910156 -27.566406 26 -27.59375 26.09375 -27.59375 C 26.28125 -27.59375 26.414062 -27.53125 26.5 -27.40625 C 26.59375 -27.28125 26.648438 -27.144531 26.671875 -27 L 27.390625 -20.484375 L 27.390625 -19.859375 C 27.390625 -19.804688 27.347656 -19.78125 27.265625 -19.78125 L 26.640625 -19.78125 C 26.578125 -19.78125 26.535156 -19.800781 26.515625 -19.84375 C 26.484375 -19.863281 26.453125 -19.953125 26.421875 -20.109375 C 26.398438 -20.273438 26.378906 -20.414062 26.359375 -20.53125 C 26.265625 -20.925781 26.179688 -21.332031 26.109375 -21.75 C 26.035156 -22.175781 25.921875 -22.570312 25.765625 -22.9375 C 25.609375 -23.3125 25.394531 -23.632812 25.125 -23.90625 C 24.863281 -24.175781 24.5 -24.363281 24.03125 -24.46875 L 17.5625 -24.46875 C 17.40625 -24.445312 17.269531 -24.421875 17.15625 -24.390625 C 17.050781 -24.359375 17 -24.207031 17 -23.9375 L 17 -3.71875 C 17 -3.332031 17.09375 -2.988281 17.28125 -2.6875 C 17.476562 -2.394531 17.738281 -2.132812 18.0625 -1.90625 C 18.382812 -1.675781 18.765625 -1.488281 19.203125 -1.34375 C 19.640625 -1.207031 20.109375 -1.113281 20.609375 -1.0625 C 20.742188 -1.050781 20.921875 -1.046875 21.140625 -1.046875 C 21.359375 -1.046875 21.539062 -1.046875 21.6875 -1.046875 C 21.75 -1.046875 21.789062 -1.023438 21.8125 -0.984375 C 21.832031 -0.953125 21.84375 -0.921875 21.84375 -0.890625 L 21.84375 -0.15625 C 21.84375 -0.125 21.832031 -0.0859375 21.8125 -0.046875 C 21.789062 -0.015625 21.75 0 21.6875 0 L 6.890625 0 C 6.828125 0 6.785156 -0.015625 6.765625 -0.046875 C 6.742188 -0.0859375 6.734375 -0.125 6.734375 -0.15625 L 6.734375 -0.890625 C 6.734375 -0.921875 6.742188 -0.953125 6.765625 -0.984375 C 6.785156 -1.023438 6.828125 -1.046875 6.890625 -1.046875 C 7.035156 -1.046875 7.21875 -1.046875 7.4375 -1.046875 C 7.65625 -1.046875 7.835938 -1.050781 7.984375 -1.0625 C 8.472656 -1.113281 8.9375 -1.207031 9.375 -1.34375 C 9.8125 -1.488281 10.191406 -1.675781 10.515625 -1.90625 C 10.835938 -2.132812 11.09375 -2.394531 11.28125 -2.6875 C 11.476562 -2.988281 11.578125 -3.332031 11.578125 -3.71875 Z M 11.578125 -23.9375 "/></g></g></g><g fill="#a6a6a6" fill-opacity="1"><g transform="translate(188.999397, 195.86338)"><g><path d="M 2.46875 -2.46875 C 2.46875 -2.90625 2.550781 -3.316406 2.71875 -3.703125 C 2.882812 -4.085938 3.113281 -4.425781 3.40625 -4.71875 C 3.695312 -5.007812 4.03125 -5.238281 4.40625 -5.40625 C 4.789062 -5.570312 5.207031 -5.65625 5.65625 -5.65625 C 6.082031 -5.65625 6.488281 -5.570312 6.875 -5.40625 C 7.269531 -5.238281 7.613281 -5.007812 7.90625 -4.71875 C 8.195312 -4.425781 8.425781 -4.085938 8.59375 -3.703125 C 8.757812 -3.316406 8.84375 -2.90625 8.84375 -2.46875 C 8.84375 -2.03125 8.757812 -1.617188 8.59375 -1.234375 C 8.425781 -0.859375 8.195312 -0.523438 7.90625 -0.234375 C 7.613281 0.0546875 7.269531 0.285156 6.875 0.453125 C 6.488281 0.617188 6.082031 0.703125 5.65625 0.703125 C 5.207031 0.703125 4.789062 0.617188 4.40625 0.453125 C 4.03125 0.285156 3.695312 0.0546875 3.40625 -0.234375 C 3.113281 -0.523438 2.882812 -0.859375 2.71875 -1.234375 C 2.550781 -1.617188 2.46875 -2.03125 2.46875 -2.46875 Z M 2.46875 -2.46875 "/></g></g></g><g fill="#a6a6a6" fill-opacity="1"><g transform="translate(199.335918, 195.86338)"><g><path d="M 2.1875 -13.65625 C 2.1875 -14.9375 2.359375 -16.164062 2.703125 -17.34375 C 3.046875 -18.53125 3.523438 -19.640625 4.140625 -20.671875 C 4.765625 -21.703125 5.507812 -22.640625 6.375 -23.484375 C 7.25 -24.328125 8.207031 -25.050781 9.25 -25.65625 C 10.289062 -26.269531 11.40625 -26.742188 12.59375 -27.078125 C 13.78125 -27.410156 15.003906 -27.578125 16.265625 -27.578125 C 16.929688 -27.578125 17.613281 -27.535156 18.3125 -27.453125 C 19.007812 -27.367188 19.691406 -27.265625 20.359375 -27.140625 C 21.023438 -27.015625 21.65625 -26.875 22.25 -26.71875 C 22.851562 -26.5625 23.378906 -26.421875 23.828125 -26.296875 C 24.285156 -26.171875 24.65625 -26.066406 24.9375 -25.984375 C 25.21875 -25.898438 25.378906 -25.859375 25.421875 -25.859375 L 25.65625 -25.859375 C 25.75 -25.859375 25.820312 -25.867188 25.875 -25.890625 C 25.9375 -25.910156 25.988281 -25.929688 26.03125 -25.953125 C 26.082031 -25.984375 26.132812 -26.003906 26.1875 -26.015625 C 26.238281 -26.035156 26.3125 -26.046875 26.40625 -26.046875 L 27.171875 -26.046875 C 27.203125 -26.046875 27.242188 -26.035156 27.296875 -26.015625 C 27.359375 -26.003906 27.390625 -25.945312 27.390625 -25.84375 L 27.390625 -19.5 C 27.390625 -19.363281 27.328125 -19.269531 27.203125 -19.21875 C 27.078125 -19.164062 26.972656 -19.140625 26.890625 -19.140625 C 26.773438 -19.148438 26.671875 -19.210938 26.578125 -19.328125 C 26.492188 -19.441406 26.410156 -19.566406 26.328125 -19.703125 C 26.253906 -19.847656 26.191406 -19.984375 26.140625 -20.109375 C 26.085938 -20.234375 26.054688 -20.328125 26.046875 -20.390625 C 25.734375 -21.378906 25.285156 -22.210938 24.703125 -22.890625 C 24.128906 -23.578125 23.453125 -24.132812 22.671875 -24.5625 C 21.890625 -25 21.03125 -25.3125 20.09375 -25.5 C 19.164062 -25.6875 18.1875 -25.78125 17.15625 -25.78125 C 15.394531 -25.78125 13.921875 -25.457031 12.734375 -24.8125 C 11.554688 -24.164062 10.609375 -23.296875 9.890625 -22.203125 C 9.171875 -21.109375 8.660156 -19.847656 8.359375 -18.421875 C 8.066406 -16.992188 7.921875 -15.492188 7.921875 -13.921875 C 7.921875 -12.835938 8.023438 -11.773438 8.234375 -10.734375 C 8.453125 -9.691406 8.757812 -8.703125 9.15625 -7.765625 C 9.5625 -6.835938 10.050781 -5.984375 10.625 -5.203125 C 11.195312 -4.421875 11.832031 -3.75 12.53125 -3.1875 C 13.238281 -2.625 14 -2.179688 14.8125 -1.859375 C 15.632812 -1.546875 16.503906 -1.390625 17.421875 -1.390625 C 18.453125 -1.390625 19.359375 -1.5 20.140625 -1.71875 C 20.921875 -1.945312 21.550781 -2.382812 22.03125 -3.03125 L 22.03125 -7.234375 C 22.03125 -7.785156 21.960938 -8.269531 21.828125 -8.6875 C 21.703125 -9.113281 21.457031 -9.472656 21.09375 -9.765625 C 20.738281 -10.054688 20.253906 -10.28125 19.640625 -10.4375 C 19.035156 -10.59375 18.257812 -10.671875 17.3125 -10.671875 C 17.238281 -10.671875 17.179688 -10.742188 17.140625 -10.890625 C 17.109375 -11.035156 17.09375 -11.15625 17.09375 -11.25 C 17.09375 -11.3125 17.109375 -11.421875 17.140625 -11.578125 C 17.179688 -11.734375 17.238281 -11.8125 17.3125 -11.8125 L 30.5625 -11.8125 C 30.664062 -11.8125 30.726562 -11.738281 30.75 -11.59375 C 30.769531 -11.445312 30.78125 -11.332031 30.78125 -11.25 C 30.78125 -11.1875 30.765625 -11.082031 30.734375 -10.9375 C 30.710938 -10.800781 30.65625 -10.710938 30.5625 -10.671875 C 30.21875 -10.523438 29.863281 -10.398438 29.5 -10.296875 C 29.144531 -10.203125 28.8125 -10.070312 28.5 -9.90625 C 28.195312 -9.738281 27.945312 -9.507812 27.75 -9.21875 C 27.550781 -8.9375 27.453125 -8.550781 27.453125 -8.0625 L 27.453125 -2.5 C 27.453125 -2.394531 27.410156 -2.3125 27.328125 -2.25 C 27.253906 -2.1875 27.128906 -2.113281 26.953125 -2.03125 C 26.234375 -1.695312 25.421875 -1.375 24.515625 -1.0625 C 23.617188 -0.757812 22.691406 -0.488281 21.734375 -0.25 C 20.785156 -0.0195312 19.84375 0.160156 18.90625 0.296875 C 17.96875 0.441406 17.113281 0.515625 16.34375 0.515625 C 14.375 0.515625 12.53125 0.1875 10.8125 -0.46875 C 9.101562 -1.125 7.609375 -2.0625 6.328125 -3.28125 C 5.046875 -4.507812 4.035156 -6 3.296875 -7.75 C 2.554688 -9.5 2.1875 -11.46875 2.1875 -13.65625 Z M 2.1875 -13.65625 "/></g></g></g><g fill="#a6a6a6" fill-opacity="1"><g transform="translate(230.086499, 195.86338)"><g><path d="M 2.46875 -2.46875 C 2.46875 -2.90625 2.550781 -3.316406 2.71875 -3.703125 C 2.882812 -4.085938 3.113281 -4.425781 3.40625 -4.71875 C 3.695312 -5.007812 4.03125 -5.238281 4.40625 -5.40625 C 4.789062 -5.570312 5.207031 -5.65625 5.65625 -5.65625 C 6.082031 -5.65625 6.488281 -5.570312 6.875 -5.40625 C 7.269531 -5.238281 7.613281 -5.007812 7.90625 -4.71875 C 8.195312 -4.425781 8.425781 -4.085938 8.59375 -3.703125 C 8.757812 -3.316406 8.84375 -2.90625 8.84375 -2.46875 C 8.84375 -2.03125 8.757812 -1.617188 8.59375 -1.234375 C 8.425781 -0.859375 8.195312 -0.523438 7.90625 -0.234375 C 7.613281 0.0546875 7.269531 0.285156 6.875 0.453125 C 6.488281 0.617188 6.082031 0.703125 5.65625 0.703125 C 5.207031 0.703125 4.789062 0.617188 4.40625 0.453125 C 4.03125 0.285156 3.695312 0.0546875 3.40625 -0.234375 C 3.113281 -0.523438 2.882812 -0.859375 2.71875 -1.234375 C 2.550781 -1.617188 2.46875 -2.03125 2.46875 -2.46875 Z M 2.46875 -2.46875 "/></g></g></g><g fill="#a6a6a6" fill-opacity="1"><g transform="translate(240.42302, 195.86338)"><g><path d="M 2.59375 -0.515625 C 2.425781 -0.515625 2.320312 -0.648438 2.28125 -0.921875 C 2.144531 -2.109375 2.035156 -3.03125 1.953125 -3.6875 C 1.878906 -4.351562 1.828125 -4.847656 1.796875 -5.171875 C 1.765625 -5.503906 1.742188 -5.71875 1.734375 -5.8125 C 1.734375 -5.90625 1.734375 -5.972656 1.734375 -6.015625 C 1.734375 -6.160156 1.796875 -6.3125 1.921875 -6.46875 C 2.046875 -6.632812 2.195312 -6.71875 2.375 -6.71875 C 2.507812 -6.71875 2.648438 -6.640625 2.796875 -6.484375 C 2.941406 -6.335938 3.078125 -6.160156 3.203125 -5.953125 C 3.335938 -5.753906 3.453125 -5.550781 3.546875 -5.34375 C 3.640625 -5.144531 3.703125 -5 3.734375 -4.90625 C 4.066406 -4.207031 4.425781 -3.617188 4.8125 -3.140625 C 5.195312 -2.671875 5.632812 -2.289062 6.125 -2 C 6.625 -1.71875 7.179688 -1.515625 7.796875 -1.390625 C 8.421875 -1.265625 9.132812 -1.203125 9.9375 -1.203125 C 11.300781 -1.203125 12.359375 -1.523438 13.109375 -2.171875 C 13.867188 -2.816406 14.25 -3.859375 14.25 -5.296875 C 14.25 -6.117188 14.066406 -6.863281 13.703125 -7.53125 C 13.335938 -8.207031 12.863281 -8.832031 12.28125 -9.40625 C 11.695312 -9.988281 11.03125 -10.539062 10.28125 -11.0625 C 9.53125 -11.582031 8.757812 -12.109375 7.96875 -12.640625 C 7.1875 -13.171875 6.421875 -13.722656 5.671875 -14.296875 C 4.921875 -14.878906 4.253906 -15.519531 3.671875 -16.21875 C 3.085938 -16.914062 2.613281 -17.691406 2.25 -18.546875 C 1.894531 -19.398438 1.71875 -20.359375 1.71875 -21.421875 C 1.71875 -22.066406 1.832031 -22.671875 2.0625 -23.234375 C 2.300781 -23.796875 2.613281 -24.300781 3 -24.75 C 3.394531 -25.207031 3.859375 -25.617188 4.390625 -25.984375 C 4.921875 -26.347656 5.484375 -26.648438 6.078125 -26.890625 C 6.671875 -27.140625 7.273438 -27.328125 7.890625 -27.453125 C 8.503906 -27.585938 9.101562 -27.65625 9.6875 -27.65625 C 10.15625 -27.65625 10.628906 -27.613281 11.109375 -27.53125 C 11.585938 -27.445312 12.054688 -27.347656 12.515625 -27.234375 C 12.984375 -27.117188 13.453125 -26.992188 13.921875 -26.859375 C 14.390625 -26.722656 14.851562 -26.597656 15.3125 -26.484375 L 16.5625 -26.609375 C 16.675781 -26.609375 16.75 -26.554688 16.78125 -26.453125 C 16.8125 -26.359375 16.835938 -26.273438 16.859375 -26.203125 L 17.40625 -21.734375 C 17.40625 -21.671875 17.320312 -21.625 17.15625 -21.59375 C 16.988281 -21.570312 16.863281 -21.5625 16.78125 -21.5625 C 16.695312 -21.5625 16.578125 -21.566406 16.421875 -21.578125 C 16.273438 -21.597656 16.191406 -21.625 16.171875 -21.65625 C 16.128906 -21.6875 16.078125 -21.765625 16.015625 -21.890625 C 15.960938 -22.015625 15.90625 -22.148438 15.84375 -22.296875 C 15.78125 -22.441406 15.710938 -22.585938 15.640625 -22.734375 C 15.578125 -22.890625 15.503906 -23.023438 15.421875 -23.140625 C 14.816406 -24.078125 14.035156 -24.773438 13.078125 -25.234375 C 12.128906 -25.703125 11.082031 -25.9375 9.9375 -25.9375 C 9.445312 -25.9375 8.984375 -25.878906 8.546875 -25.765625 C 8.117188 -25.648438 7.742188 -25.46875 7.421875 -25.21875 C 7.109375 -24.96875 6.859375 -24.648438 6.671875 -24.265625 C 6.492188 -23.890625 6.40625 -23.4375 6.40625 -22.90625 C 6.40625 -22.132812 6.582031 -21.429688 6.9375 -20.796875 C 7.300781 -20.171875 7.773438 -19.582031 8.359375 -19.03125 C 8.953125 -18.476562 9.625 -17.941406 10.375 -17.421875 C 11.132812 -16.898438 11.90625 -16.367188 12.6875 -15.828125 C 13.46875 -15.296875 14.234375 -14.722656 14.984375 -14.109375 C 15.742188 -13.503906 16.421875 -12.832031 17.015625 -12.09375 C 17.609375 -11.351562 18.082031 -10.53125 18.4375 -9.625 C 18.800781 -8.726562 18.984375 -7.71875 18.984375 -6.59375 C 18.984375 -5.84375 18.851562 -5.140625 18.59375 -4.484375 C 18.332031 -3.835938 17.976562 -3.25 17.53125 -2.71875 C 17.09375 -2.195312 16.570312 -1.734375 15.96875 -1.328125 C 15.375 -0.921875 14.738281 -0.582031 14.0625 -0.3125 C 13.382812 -0.0390625 12.6875 0.160156 11.96875 0.296875 C 11.25 0.441406 10.546875 0.515625 9.859375 0.515625 C 8.992188 0.515625 8.238281 0.453125 7.59375 0.328125 C 6.957031 0.203125 6.40625 0.0625 5.9375 -0.09375 C 5.476562 -0.257812 5.085938 -0.40625 4.765625 -0.53125 C 4.453125 -0.65625 4.191406 -0.71875 3.984375 -0.71875 C 3.898438 -0.71875 3.84375 -0.710938 3.8125 -0.703125 Z M 2.59375 -0.515625 "/></g></g></g><path stroke-linecap="butt" transform="matrix(0.75, 0, 0, 0.75, 83.762351, 155.139803)" fill="none" stroke-linejoin="miter" d="M 64.780411 52.662557 C 64.44187 52.626099 64.087703 52.594849 63.712703 52.558391 C 63.342911 52.527141 62.988744 52.475057 62.650203 52.407349 C 60.296036 51.985474 58.066869 51.235474 55.957494 50.157349 C 53.848119 49.084432 51.99916 47.74589 50.410619 46.146932 C 48.816869 44.547973 47.556452 42.725057 46.629368 40.678181 C 45.697077 38.626098 45.228327 36.417765 45.228327 34.047973 C 45.228327 31.256306 45.754368 28.704222 46.806452 26.391722 C 47.853327 24.08443 49.296035 22.094847 51.134577 20.42818 C 52.96791 18.761513 55.144994 17.469847 57.660619 16.55318 C 60.171036 15.641721 62.900203 15.183388 65.84812 15.183388 C 67.728328 15.183388 69.525203 15.391721 71.243953 15.80318 C 72.962703 16.219847 74.561662 16.808388 76.040829 17.568805 C 77.525204 18.33443 78.874162 19.266722 80.092912 20.376097 C 81.311662 21.485472 82.348121 22.725055 83.202287 24.094847 C 84.056454 25.464639 84.723121 26.969847 85.197079 28.600056 C 85.671038 30.235472 85.905413 31.964639 85.905413 33.792764 C 85.905413 35.808389 85.566871 37.704223 84.889788 39.480265 C 84.212704 41.261515 83.280412 42.90214 82.082496 44.407348 C 80.889787 45.912557 79.488746 47.27714 77.868954 48.49589 C 76.25437 49.71464 74.514787 50.771932 72.650203 51.667766 C 73.37937 52.209432 74.103329 52.751099 74.822079 53.292766 C 75.540829 53.834432 76.217912 54.350057 76.842912 54.829224 C 77.467912 55.313599 78.030412 55.751099 78.530412 56.136516 C 79.030412 56.527141 79.431454 56.850058 79.738746 57.105266 C 79.905412 57.240683 80.019996 57.334433 80.077287 57.381308 C 80.139787 57.433391 80.186662 57.469849 80.217912 57.485474 C 80.931454 58.058391 81.629371 58.594849 82.311662 59.084433 C 82.999162 59.574016 83.639787 59.938599 84.228329 60.178183 C 84.316871 60.209433 84.394996 60.235474 84.473121 60.251099 C 84.546038 60.266724 84.644996 60.292766 84.764788 60.329224 L 84.738746 60.329224 C 84.993954 60.381308 85.264788 60.443808 85.551246 60.516724 C 85.837704 60.594849 86.103329 60.678183 86.348121 60.771933 C 86.598121 60.865683 86.796038 60.959433 86.947079 61.053183 C 87.098121 61.146933 87.176246 61.240683 87.176246 61.344849 C 87.176246 61.667766 87.046038 61.912558 86.780413 62.09485 C 86.519996 62.271933 86.186663 62.396933 85.780413 62.475058 C 85.374163 62.547975 84.926246 62.59485 84.447079 62.615683 C 83.962704 62.631308 83.509579 62.636516 83.087704 62.636516 C 81.702287 62.636516 80.447079 62.480266 79.332496 62.15735 C 78.212704 61.834433 77.118954 61.360474 76.056454 60.735474 C 75.259579 60.261516 74.514787 59.782349 73.822079 59.297974 C 73.124162 58.818808 72.462703 58.329224 71.827287 57.839641 C 71.19187 57.350058 70.572078 56.844849 69.962703 56.329224 C 69.353328 55.813599 68.72312 55.266724 68.082495 54.693807 C 67.540828 54.199016 67.00437 53.756307 66.467911 53.360474 C 65.936661 52.959432 65.374161 52.730266 64.780411 52.662557 Z M 52.644994 33.032348 C 52.644994 34.454223 52.790827 35.865681 53.087702 37.261515 C 53.384577 38.657348 53.816869 39.990681 54.384577 41.261515 C 54.952286 42.52714 55.644994 43.699015 56.467911 44.77714 C 57.285619 45.850057 58.223119 46.782349 59.269994 47.568807 C 60.322078 48.355265 61.478328 48.975057 62.749161 49.422974 C 64.019995 49.87089 65.384578 50.094849 66.837703 50.094849 C 68.478328 50.094849 70.019995 49.730265 71.457495 49.006307 C 72.900203 48.27714 74.144995 47.24589 75.202287 45.907348 C 76.259579 44.568807 77.09812 42.954223 77.707495 41.05839 C 78.31687 39.162556 78.618954 37.053181 78.618954 34.735473 C 78.618954 32.620889 78.332495 30.563597 77.75437 28.579222 C 77.181454 26.589639 76.322079 24.808389 75.176245 23.245889 C 74.03562 21.67818 72.603328 20.391722 70.889787 19.386513 C 69.171037 18.376097 67.165828 17.782347 64.884578 17.594847 C 63.004369 17.594847 61.306453 18.011513 59.790828 18.839638 C 58.275202 19.667763 56.988744 20.792763 55.931452 22.204222 C 54.874161 23.61568 54.061661 25.256305 53.493952 27.115681 C 52.926244 28.980264 52.644994 30.949014 52.644994 33.032348 Z M 90.702288 48.699015 C 90.702288 48.126099 90.811663 47.579224 91.030413 47.063599 C 91.249163 46.542765 91.556455 46.094848 91.941871 45.704223 C 92.332496 45.313598 92.780413 45.011515 93.29083 44.787557 C 93.796038 44.568807 94.348122 44.459432 94.941872 44.459432 C 95.514788 44.459432 96.061663 44.568807 96.577288 44.787557 C 97.092913 45.011515 97.546038 45.313598 97.936663 45.704223 C 98.327288 46.094848 98.629372 46.542765 98.848122 47.063599 C 99.07208 47.579224 99.181455 48.126099 99.181455 48.699015 C 99.181455 49.292765 99.07208 49.83964 98.848122 50.350057 C 98.629372 50.855265 98.327288 51.30839 97.936663 51.693807 C 97.546038 52.084432 97.092913 52.391724 96.577288 52.610474 C 96.061663 52.829224 95.514788 52.938599 94.941872 52.938599 C 94.348122 52.938599 93.796038 52.829224 93.29083 52.610474 C 92.780413 52.391724 92.332496 52.084432 91.941871 51.693807 C 91.556455 51.30839 91.249163 50.855265 91.030413 50.350057 C 90.811663 49.83964 90.702288 49.292765 90.702288 48.699015 Z M 116.618956 20.08443 C 116.618956 19.730263 116.54604 19.527138 116.405415 19.485472 C 116.259581 19.443805 116.087706 19.407347 115.884581 19.370888 L 107.275206 19.370888 C 106.650206 19.506305 106.155414 19.756305 105.801247 20.120888 C 105.447081 20.485472 105.165831 20.912555 104.962706 21.402139 C 104.759581 21.89693 104.608539 22.422972 104.509581 22.99068 C 104.405414 23.558389 104.296039 24.105264 104.176247 24.631305 C 104.144997 24.782347 104.108539 24.964639 104.077289 25.172972 C 104.04083 25.386514 104.00958 25.511514 103.973122 25.542764 C 103.941872 25.594847 103.879372 25.620889 103.796039 25.620889 L 102.957497 25.620889 C 102.858539 25.620889 102.806455 25.58443 102.806455 25.516722 L 102.806455 24.67818 L 103.743955 15.995888 C 103.780414 15.808388 103.85333 15.631305 103.973122 15.464638 C 104.092914 15.292763 104.280414 15.20943 104.530414 15.20943 C 104.650206 15.20943 104.764789 15.24068 104.874164 15.308388 C 104.983539 15.376096 105.092914 15.45943 105.191872 15.55318 C 105.296039 15.64693 105.389789 15.735471 105.483539 15.818805 C 105.577289 15.902138 105.676247 15.964638 105.775206 15.995888 C 105.978331 16.079222 106.171039 16.136513 106.348122 16.162555 C 106.525206 16.188597 106.723122 16.199013 106.947081 16.199013 L 133.556457 16.199013 C 133.775207 16.199013 133.973124 16.188597 134.150207 16.162555 C 134.327291 16.136513 134.519999 16.079222 134.723124 15.995888 C 134.822083 15.964638 134.921041 15.902138 135.014791 15.818805 C 135.108541 15.735471 135.202291 15.64693 135.306458 15.55318 C 135.405416 15.45943 135.514791 15.376096 135.624166 15.308388 C 135.733541 15.24068 135.848124 15.20943 135.967916 15.20943 C 136.217916 15.20943 136.405416 15.292763 136.525208 15.464638 C 136.644999 15.631305 136.717916 15.808388 136.754374 15.995888 L 137.691874 24.67818 L 137.691874 25.516722 C 137.691874 25.58443 137.639791 25.620889 137.540833 25.620889 L 136.702291 25.620889 C 136.618958 25.620889 136.556458 25.594847 136.525208 25.542764 C 136.488749 25.511514 136.457499 25.386514 136.421041 25.172972 C 136.389791 24.964639 136.353333 24.782347 136.322083 24.631305 C 136.202291 24.105264 136.092916 23.558389 135.993958 22.99068 C 135.889791 22.422972 135.738749 21.89693 135.535624 21.402139 C 135.332499 20.912555 135.051249 20.485472 134.697083 20.120888 C 134.342916 19.756305 133.848124 19.506305 133.223124 19.370888 L 124.592915 19.370888 C 124.38979 19.407347 124.212707 19.443805 124.072082 19.485472 C 123.926248 19.527138 123.853332 19.730263 123.853332 20.08443 L 123.853332 47.047974 C 123.853332 47.55839 123.98354 48.011515 124.23354 48.407349 C 124.488749 48.803182 124.832499 49.157349 125.26479 49.459432 C 125.697082 49.766724 126.20229 50.011515 126.785624 50.199015 C 127.374165 50.381307 127.993957 50.511515 128.655415 50.579224 C 128.837707 50.594849 129.07729 50.605265 129.363749 50.605265 C 129.650207 50.605265 129.900207 50.605265 130.103332 50.605265 C 130.186666 50.605265 130.238749 50.631307 130.264791 50.678182 C 130.290832 50.730265 130.306457 50.771932 130.306457 50.80839 L 130.306457 51.797974 C 130.306457 51.829224 130.290832 51.870891 130.264791 51.922974 C 130.238749 51.975057 130.186666 52.001099 130.103332 52.001099 L 110.374164 52.001099 C 110.285623 52.001099 110.233539 51.975057 110.207498 51.922974 C 110.181456 51.870891 110.171039 51.829224 110.171039 51.797974 L 110.171039 50.80839 C 110.171039 50.771932 110.181456 50.730265 110.207498 50.678182 C 110.233539 50.631307 110.285623 50.605265 110.374164 50.605265 C 110.556456 50.605265 110.801248 50.605265 111.098123 50.605265 C 111.394998 50.605265 111.634581 50.594849 111.822081 50.579224 C 112.478331 50.511515 113.103331 50.381307 113.686664 50.199015 C 114.269998 50.011515 114.780415 49.766724 115.207498 49.459432 C 115.63979 49.157349 115.98354 48.803182 116.238748 48.407349 C 116.493956 48.011515 116.618956 47.55839 116.618956 47.047974 Z M 141.316875 48.699015 C 141.316875 48.126099 141.42625 47.579224 141.650208 47.063599 C 141.868958 46.542765 142.171041 46.094848 142.561666 45.704223 C 142.952291 45.313598 143.400208 45.011515 143.910625 44.787557 C 144.415833 44.568807 144.967917 44.459432 145.556458 44.459432 C 146.134583 44.459432 146.681458 44.568807 147.197083 44.787557 C 147.712708 45.011515 148.165833 45.313598 148.556458 45.704223 C 148.941875 46.094848 149.249167 46.542765 149.467917 47.063599 C 149.686667 47.579224 149.80125 48.126099 149.80125 48.699015 C 149.80125 49.292765 149.686667 49.83964 149.467917 50.350057 C 149.249167 50.855265 148.941875 51.30839 148.556458 51.693807 C 148.165833 52.084432 147.712708 52.391724 147.197083 52.610474 C 146.681458 52.829224 146.134583 52.938599 145.556458 52.938599 C 144.967917 52.938599 144.415833 52.829224 143.910625 52.610474 C 143.400208 52.391724 142.952291 52.084432 142.561666 51.693807 C 142.171041 51.30839 141.868958 50.855265 141.650208 50.350057 C 141.42625 49.83964 141.316875 49.292765 141.316875 48.699015 Z M 154.717917 33.792764 C 154.717917 32.084431 154.947084 30.443806 155.405417 28.870889 C 155.863751 27.292764 156.504376 25.818805 157.337709 24.438597 C 158.165834 23.058389 159.160626 21.808389 160.316876 20.67818 C 161.478334 19.55318 162.754376 18.58443 164.139793 17.77193 C 165.530418 16.95943 167.014793 16.33443 168.598126 15.89693 C 170.176252 15.454221 171.80646 15.235471 173.483543 15.235471 C 174.379377 15.235471 175.296044 15.287555 176.228335 15.39693 C 177.155419 15.511513 178.066877 15.64693 178.957502 15.818805 C 179.842919 15.985471 180.686669 16.172972 181.483544 16.376097 C 182.275211 16.579222 182.973127 16.766722 183.577294 16.933388 C 184.176252 17.105263 184.665836 17.245888 185.051252 17.355263 C 185.431461 17.464638 185.645003 17.52193 185.697086 17.52193 L 185.999169 17.52193 C 186.134586 17.52193 186.243961 17.506305 186.316878 17.480263 C 186.395003 17.454222 186.462711 17.42818 186.520003 17.391722 C 186.582503 17.360472 186.645003 17.329222 186.712711 17.30318 C 186.780419 17.277138 186.879378 17.266722 187.014794 17.266722 L 188.030419 17.266722 C 188.066878 17.266722 188.118961 17.277138 188.197086 17.30318 C 188.275211 17.329222 188.311669 17.407347 188.311669 17.542763 L 188.311669 26.001097 C 188.311669 26.188597 188.233544 26.313597 188.072086 26.381306 C 187.910628 26.449014 187.770003 26.480264 187.650211 26.480264 C 187.499169 26.464639 187.363753 26.381306 187.243961 26.230264 C 187.129378 26.074014 187.014794 25.907347 186.915836 25.719847 C 186.811669 25.532347 186.728336 25.355264 186.660628 25.188597 C 186.592919 25.016722 186.551253 24.891722 186.535628 24.808389 C 186.113753 23.485472 185.514794 22.370889 184.743961 21.469847 C 183.973127 20.563597 183.066877 19.824013 182.025211 19.245888 C 180.988752 18.672972 179.842919 18.256305 178.598127 18.001097 C 177.353335 17.745888 176.046044 17.620888 174.676252 17.620888 C 172.322085 17.620888 170.358543 18.05318 168.785626 18.917763 C 167.21271 19.777138 165.947085 20.938597 164.988751 22.39693 C 164.035626 23.850055 163.358543 25.532347 162.957501 27.433389 C 162.561668 29.339639 162.363751 31.339639 162.363751 33.438598 C 162.363751 34.876098 162.504376 36.292764 162.796043 37.678181 C 163.082501 39.068806 163.493959 40.381306 164.025209 41.626098 C 164.556459 42.87089 165.207501 44.016723 165.967918 45.053182 C 166.728335 46.094848 167.582501 46.99589 168.520001 47.74589 C 169.457501 48.501099 170.473127 49.08964 171.566877 49.511515 C 172.660627 49.93339 173.811668 50.146932 175.030418 50.146932 C 176.405419 50.146932 177.608544 49.99589 178.65021 49.704224 C 179.691877 49.407349 180.535627 48.824015 181.176252 47.96464 L 181.176252 42.350057 C 181.176252 41.626098 181.087711 40.975056 180.910627 40.407348 C 180.733544 39.83964 180.405419 39.365681 179.93146 38.975056 C 179.457502 38.584431 178.816877 38.287556 178.004377 38.084431 C 177.191877 37.881306 176.15021 37.782348 174.879377 37.782348 C 174.780418 37.782348 174.707502 37.68339 174.665835 37.490681 C 174.624168 37.292765 174.603335 37.131306 174.603335 36.99589 C 174.603335 36.907348 174.624168 36.766723 174.665835 36.563598 C 174.707502 36.360473 174.780418 36.256306 174.879377 36.256306 L 192.551253 36.256306 C 192.68667 36.256306 192.770003 36.355265 192.790836 36.547973 C 192.816878 36.74589 192.832503 36.891723 192.832503 36.99589 C 192.832503 37.079223 192.816878 37.21464 192.78042 37.40214 C 192.74917 37.584431 192.671045 37.71464 192.551253 37.782348 C 192.09292 37.969848 191.62417 38.126098 191.145003 38.261515 C 190.660628 38.396931 190.217919 38.579223 189.811669 38.797973 C 189.405419 39.016723 189.066878 39.318806 188.806461 39.699015 C 188.546044 40.079223 188.415836 40.600056 188.415836 41.261515 L 188.415836 48.672974 C 188.415836 48.80839 188.358544 48.917765 188.249169 49.006307 C 188.139794 49.08964 187.962711 49.18339 187.728336 49.282349 C 186.780419 49.740682 185.707503 50.172974 184.504377 50.579224 C 183.301252 50.985474 182.066877 51.344849 180.796044 51.657349 C 179.52521 51.969849 178.264794 52.219849 177.014794 52.407349 C 175.759585 52.594849 174.61896 52.683391 173.58771 52.683391 C 170.96271 52.683391 168.509585 52.251099 166.223126 51.376099 C 163.936668 50.506307 161.941876 49.251099 160.228334 47.62089 C 158.520001 45.985473 157.176251 44.001098 156.191876 41.667765 C 155.212709 39.329223 154.717917 36.704223 154.717917 33.792764 Z M 196.103337 48.699015 C 196.103337 48.126099 196.212712 47.579224 196.431462 47.063599 C 196.650212 46.542765 196.957503 46.094848 197.348128 45.704223 C 197.733545 45.313598 198.181462 45.011515 198.691878 44.787557 C 199.197087 44.568807 199.74917 44.459432 200.34292 44.459432 C 200.915837 44.459432 201.462712 44.568807 201.978337 44.787557 C 202.493962 45.011515 202.947087 45.313598 203.337712 45.704223 C 203.728337 46.094848 204.03042 46.542765 204.254379 47.063599 C 204.473129 47.579224 204.582504 48.126099 204.582504 48.699015 C 204.582504 49.292765 204.473129 49.83964 204.254379 50.350057 C 204.03042 50.855265 203.728337 51.30839 203.337712 51.693807 C 202.947087 52.084432 202.493962 52.391724 201.978337 52.610474 C 201.462712 52.829224 200.915837 52.938599 200.34292 52.938599 C 199.74917 52.938599 199.197087 52.829224 198.691878 52.610474 C 198.181462 52.391724 197.733545 52.084432 197.348128 51.693807 C 196.957503 51.30839 196.650212 50.855265 196.431462 50.350057 C 196.212712 49.83964 196.103337 49.292765 196.103337 48.699015 Z M 210.035629 51.313599 C 209.816879 51.313599 209.681462 51.136515 209.629379 50.782349 C 209.441879 49.188599 209.301254 47.954224 209.197087 47.074015 C 209.098129 46.193807 209.025212 45.532348 208.983546 45.094848 C 208.941879 44.65214 208.915837 44.37089 208.905421 44.240682 C 208.895004 44.115682 208.895004 44.02714 208.895004 43.975057 C 208.895004 43.792765 208.978337 43.58964 209.145004 43.365682 C 209.316879 43.146932 209.520004 43.037557 209.754379 43.037557 C 209.926254 43.037557 210.108546 43.136515 210.301254 43.33964 C 210.499171 43.542765 210.681463 43.782348 210.858546 44.053182 C 211.040838 44.324015 211.191879 44.594848 211.316879 44.865682 C 211.447088 45.136515 211.525213 45.329223 211.561671 45.449015 C 211.999171 46.381307 212.478338 47.162557 212.993963 47.797974 C 213.509588 48.43339 214.098129 48.938599 214.759588 49.318807 C 215.421046 49.704224 216.165838 49.975057 216.993963 50.146932 C 217.822088 50.313599 218.770005 50.40214 219.837713 50.40214 C 221.650213 50.40214 223.056463 49.969849 224.061672 49.105265 C 225.072088 48.240682 225.577297 46.855265 225.577297 44.943807 C 225.577297 43.83964 225.332505 42.844848 224.853338 41.943807 C 224.368963 41.047973 223.738755 40.21464 222.957505 39.443806 C 222.181463 38.672973 221.290838 37.943806 220.296046 37.24589 C 219.296046 36.553181 218.270005 35.850056 217.22313 35.141723 C 216.171046 34.428181 215.150213 33.688598 214.150213 32.917764 C 213.150213 32.146931 212.259588 31.297973 211.483546 30.365681 C 210.702296 29.438597 210.072087 28.402139 209.592921 27.271931 C 209.108546 26.136514 208.868962 24.855264 208.868962 23.433389 C 208.868962 22.574014 209.025212 21.766722 209.337712 21.02193 C 209.650212 20.277138 210.072087 19.600055 210.592921 18.99068 C 211.118963 18.381305 211.733546 17.83443 212.436671 17.355263 C 213.139796 16.870888 213.884588 16.464638 214.681463 16.136513 C 215.478338 15.80318 216.28563 15.558388 217.108546 15.386513 C 217.926255 15.219846 218.728338 15.131305 219.50438 15.131305 C 220.134588 15.131305 220.764796 15.188596 221.400213 15.297971 C 222.030422 15.407346 222.66063 15.537555 223.275213 15.693805 C 223.895005 15.844846 224.514797 16.006305 225.145005 16.188597 C 225.770005 16.36568 226.389797 16.527138 226.999172 16.683388 L 228.671047 16.527138 C 228.827297 16.527138 228.921047 16.594847 228.962714 16.719847 C 229.00438 16.844847 229.03563 16.95943 229.051255 17.063597 L 229.790839 23.027139 C 229.790839 23.11568 229.681464 23.172972 229.457505 23.20943 C 229.238755 23.24068 229.072089 23.256305 228.952297 23.256305 C 228.84813 23.256305 228.697089 23.245889 228.493964 23.219847 C 228.290839 23.193805 228.171047 23.162555 228.139797 23.131305 C 228.087714 23.079222 228.025214 22.975055 227.947089 22.813597 C 227.874172 22.652139 227.790839 22.475055 227.707505 22.282347 C 227.624172 22.08443 227.53563 21.886514 227.44188 21.683389 C 227.34813 21.480264 227.249172 21.30318 227.150214 21.152139 C 226.337714 19.89693 225.296047 18.964638 224.025213 18.344847 C 222.75438 17.725055 221.358547 17.417763 219.837713 17.417763 C 219.176255 17.417763 218.556463 17.495888 217.983546 17.64693 C 217.405421 17.797972 216.91063 18.037555 216.483546 18.370888 C 216.061671 18.699013 215.728338 19.120888 215.483546 19.626097 C 215.238754 20.136513 215.113754 20.745888 215.113754 21.454222 C 215.113754 22.485472 215.353338 23.422972 215.837713 24.261514 C 216.322088 25.100055 216.952296 25.886514 217.743963 26.620889 C 218.530421 27.360472 219.426255 28.074014 220.431463 28.766722 C 221.44188 29.459431 222.462713 30.167764 223.50438 30.886514 C 224.546047 31.605264 225.572088 32.370889 226.577297 33.183389 C 227.582505 33.995889 228.483547 34.896931 229.270005 35.876098 C 230.056464 36.860473 230.69188 37.949015 231.171047 39.15214 C 231.655422 40.355265 231.895006 41.709432 231.895006 43.21464 C 231.895006 44.21464 231.723131 45.146932 231.374172 46.006307 C 231.030422 46.87089 230.561672 47.65214 229.967922 48.355265 C 229.374172 49.05839 228.681464 49.68339 227.884589 50.225057 C 227.087714 50.766724 226.238755 51.21464 225.332505 51.579224 C 224.426255 51.943807 223.499172 52.219849 222.540838 52.407349 C 221.582505 52.594849 220.650213 52.683391 219.733546 52.683391 C 218.582505 52.683391 217.582505 52.600057 216.728338 52.433391 C 215.868963 52.261516 215.134588 52.074016 214.514796 51.860474 C 213.900213 51.646932 213.379379 51.459432 212.957504 51.287557 C 212.530421 51.12089 212.176254 51.037557 211.889796 51.037557 C 211.785629 51.037557 211.712713 51.042765 211.660629 51.05839 Z M 210.035629 51.313599 " stroke="#004aad" stroke-width="1.95" stroke-opacity="1" stroke-miterlimit="4"/><g fill="#000000" fill-opacity="1"><g transform="translate(55.403552, 229.082798)"><g><path d="M 9.609375 -5.078125 C 9.609375 -4.273438 9.488281 -3.53125 9.25 -2.84375 C 9.007812 -2.15625 8.671875 -1.566406 8.234375 -1.078125 L 9.125 -0.203125 L 8.453125 0.4375 L 7.546875 -0.484375 C 6.867188 -0.00390625 6.09375 0.234375 5.21875 0.234375 C 4.363281 0.234375 3.601562 0.0078125 2.9375 -0.4375 C 2.28125 -0.894531 1.765625 -1.53125 1.390625 -2.34375 C 1.015625 -3.15625 0.828125 -4.070312 0.828125 -5.09375 C 0.828125 -6.125 1.015625 -7.046875 1.390625 -7.859375 C 1.765625 -8.679688 2.28125 -9.316406 2.9375 -9.765625 C 3.601562 -10.222656 4.363281 -10.453125 5.21875 -10.453125 C 6.070312 -10.453125 6.828125 -10.222656 7.484375 -9.765625 C 8.148438 -9.316406 8.671875 -8.679688 9.046875 -7.859375 C 9.421875 -7.046875 9.609375 -6.117188 9.609375 -5.078125 Z M 5.21875 -0.796875 C 5.769531 -0.796875 6.28125 -0.945312 6.75 -1.25 L 5.484375 -2.5 L 6.15625 -3.171875 L 7.453125 -1.875 C 7.773438 -2.257812 8.023438 -2.726562 8.203125 -3.28125 C 8.378906 -3.84375 8.46875 -4.445312 8.46875 -5.09375 C 8.46875 -5.925781 8.328125 -6.671875 8.046875 -7.328125 C 7.773438 -7.992188 7.390625 -8.507812 6.890625 -8.875 C 6.398438 -9.25 5.84375 -9.4375 5.21875 -9.4375 C 4.601562 -9.4375 4.046875 -9.25 3.546875 -8.875 C 3.054688 -8.507812 2.671875 -7.992188 2.390625 -7.328125 C 2.109375 -6.671875 1.96875 -5.925781 1.96875 -5.09375 C 1.96875 -4.269531 2.109375 -3.53125 2.390625 -2.875 C 2.671875 -2.21875 3.054688 -1.707031 3.546875 -1.34375 C 4.046875 -0.976562 4.601562 -0.796875 5.21875 -0.796875 Z M 5.21875 -0.796875 "/></g></g></g><g fill="#000000" fill-opacity="1"><g transform="translate(66.053553, 229.082798)"><g><path d="M 7.109375 -7.015625 L 7.109375 0 L 6.09375 0 L 6.09375 -1.171875 C 5.851562 -0.722656 5.535156 -0.375 5.140625 -0.125 C 4.742188 0.113281 4.285156 0.234375 3.765625 0.234375 C 3.273438 0.234375 2.820312 0.132812 2.40625 -0.0625 C 1.988281 -0.257812 1.65625 -0.550781 1.40625 -0.9375 C 1.164062 -1.332031 1.046875 -1.796875 1.046875 -2.328125 L 1.046875 -7.015625 L 2.0625 -7.015625 L 2.0625 -2.78125 C 2.0625 -1.382812 2.6875 -0.6875 3.9375 -0.6875 C 4.65625 -0.6875 5.191406 -0.941406 5.546875 -1.453125 C 5.910156 -1.960938 6.09375 -2.648438 6.09375 -3.515625 L 6.09375 -7.015625 Z M 7.109375 -7.015625 "/></g></g></g><g fill="#000000" fill-opacity="1"><g transform="translate(74.708551, 229.082798)"><g><path d="M 7.46875 -7.015625 L 7.46875 0 L 6.453125 0 L 6.453125 -1.03125 C 6.160156 -0.632812 5.800781 -0.320312 5.375 -0.09375 C 4.957031 0.125 4.5 0.234375 4 0.234375 C 3.332031 0.234375 2.734375 0.078125 2.203125 -0.234375 C 1.671875 -0.554688 1.253906 -1.003906 0.953125 -1.578125 C 0.660156 -2.148438 0.515625 -2.800781 0.515625 -3.53125 C 0.515625 -4.25 0.660156 -4.890625 0.953125 -5.453125 C 1.242188 -6.015625 1.648438 -6.457031 2.171875 -6.78125 C 2.703125 -7.101562 3.300781 -7.265625 3.96875 -7.265625 C 4.476562 -7.265625 4.945312 -7.148438 5.375 -6.921875 C 5.800781 -6.691406 6.160156 -6.375 6.453125 -5.96875 L 6.453125 -7.015625 Z M 3.96875 -0.6875 C 4.445312 -0.6875 4.875 -0.804688 5.25 -1.046875 C 5.625 -1.285156 5.914062 -1.617188 6.125 -2.046875 C 6.34375 -2.484375 6.453125 -2.972656 6.453125 -3.515625 C 6.453125 -4.046875 6.34375 -4.523438 6.125 -4.953125 C 5.914062 -5.390625 5.625 -5.726562 5.25 -5.96875 C 4.875 -6.207031 4.445312 -6.328125 3.96875 -6.328125 C 3.5 -6.328125 3.078125 -6.207031 2.703125 -5.96875 C 2.335938 -5.726562 2.050781 -5.394531 1.84375 -4.96875 C 1.632812 -4.539062 1.53125 -4.0625 1.53125 -3.53125 C 1.53125 -2.976562 1.632812 -2.484375 1.84375 -2.046875 C 2.050781 -1.617188 2.335938 -1.285156 2.703125 -1.046875 C 3.078125 -0.804688 3.5 -0.6875 3.96875 -0.6875 Z M 3.96875 -0.6875 "/></g></g></g><g fill="#000000" fill-opacity="1"><g transform="translate(83.723546, 229.082798)"><g><path d="M 1.015625 0 L 1.015625 -10.890625 L 2.046875 -10.890625 L 2.046875 0 Z M 1.015625 0 "/></g></g></g><g fill="#000000" fill-opacity="1"><g transform="translate(87.36855, 229.082798)"><g><path d="M 1.5 0 L 1.5 -7.015625 L 2.515625 -7.015625 L 2.515625 0 Z M 2 -8.390625 C 1.769531 -8.390625 1.578125 -8.46875 1.421875 -8.625 C 1.265625 -8.78125 1.1875 -8.972656 1.1875 -9.203125 C 1.1875 -9.429688 1.265625 -9.617188 1.421875 -9.765625 C 1.578125 -9.921875 1.769531 -10 2 -10 C 2.21875 -10 2.40625 -9.921875 2.5625 -9.765625 C 2.726562 -9.617188 2.8125 -9.425781 2.8125 -9.1875 C 2.8125 -8.96875 2.726562 -8.78125 2.5625 -8.625 C 2.40625 -8.46875 2.21875 -8.390625 2 -8.390625 Z M 2 -8.390625 "/></g></g></g><g fill="#000000" fill-opacity="1"><g transform="translate(91.988555, 229.082798)"><g><path d="M 1.3125 0 L 1.3125 -6.09375 L 0.125 -6.09375 L 0.125 -7.015625 L 1.3125 -7.015625 L 1.3125 -9.34375 L 2.34375 -9.34375 L 2.34375 -7.015625 L 3.953125 -7.015625 L 3.953125 -6.09375 L 2.34375 -6.09375 L 2.34375 0 Z M 1.3125 0 "/></g></g></g><g fill="#000000" fill-opacity="1"><g transform="translate(96.71356, 229.082798)"><g><path d="M 5.78125 -7.015625 L 6.734375 -7.015625 L 2.9375 3 L 1.921875 3 L 3.03125 0.140625 L 0.15625 -7.015625 L 1.21875 -7.015625 L 3.546875 -1.203125 Z M 5.78125 -7.015625 "/></g></g></g><g fill="#000000" fill-opacity="1"><g transform="translate(104.048561, 229.082798)"><g><path d="M 0.859375 -3.265625 L 0.859375 -4.109375 L 4.265625 -4.109375 L 4.265625 -3.265625 Z M 0.859375 -3.265625 "/></g></g></g><g fill="#000000" fill-opacity="1"><g transform="translate(109.74856, 229.082798)"><g><path d="M 4.453125 -7.265625 C 5.117188 -7.265625 5.710938 -7.101562 6.234375 -6.78125 C 6.765625 -6.457031 7.175781 -6.015625 7.46875 -5.453125 C 7.769531 -4.890625 7.921875 -4.25 7.921875 -3.53125 C 7.921875 -2.800781 7.769531 -2.148438 7.46875 -1.578125 C 7.164062 -1.003906 6.75 -0.554688 6.21875 -0.234375 C 5.695312 0.078125 5.097656 0.234375 4.421875 0.234375 C 3.921875 0.234375 3.460938 0.125 3.046875 -0.09375 C 2.628906 -0.320312 2.273438 -0.632812 1.984375 -1.03125 L 1.984375 0 L 0.953125 0 L 0.953125 -10.890625 L 1.984375 -10.890625 L 1.984375 -5.96875 C 2.273438 -6.375 2.628906 -6.691406 3.046875 -6.921875 C 3.472656 -7.148438 3.941406 -7.265625 4.453125 -7.265625 Z M 4.453125 -0.6875 C 4.921875 -0.6875 5.335938 -0.804688 5.703125 -1.046875 C 6.078125 -1.285156 6.367188 -1.617188 6.578125 -2.046875 C 6.796875 -2.484375 6.90625 -2.976562 6.90625 -3.53125 C 6.90625 -4.0625 6.796875 -4.539062 6.578125 -4.96875 C 6.367188 -5.394531 6.078125 -5.726562 5.703125 -5.96875 C 5.335938 -6.207031 4.921875 -6.328125 4.453125 -6.328125 C 3.972656 -6.328125 3.546875 -6.207031 3.171875 -5.96875 C 2.796875 -5.726562 2.503906 -5.390625 2.296875 -4.953125 C 2.085938 -4.523438 1.984375 -4.046875 1.984375 -3.515625 C 1.984375 -2.972656 2.085938 -2.484375 2.296875 -2.046875 C 2.503906 -1.617188 2.796875 -1.285156 3.171875 -1.046875 C 3.546875 -0.804688 3.972656 -0.6875 4.453125 -0.6875 Z M 4.453125 -0.6875 "/></g></g></g><g fill="#000000" fill-opacity="1"><g transform="translate(118.763557, 229.082798)"><g><path d="M 7.46875 -7.015625 L 7.46875 0 L 6.453125 0 L 6.453125 -1.03125 C 6.160156 -0.632812 5.800781 -0.320312 5.375 -0.09375 C 4.957031 0.125 4.5 0.234375 4 0.234375 C 3.332031 0.234375 2.734375 0.078125 2.203125 -0.234375 C 1.671875 -0.554688 1.253906 -1.003906 0.953125 -1.578125 C 0.660156 -2.148438 0.515625 -2.800781 0.515625 -3.53125 C 0.515625 -4.25 0.660156 -4.890625 0.953125 -5.453125 C 1.242188 -6.015625 1.648438 -6.457031 2.171875 -6.78125 C 2.703125 -7.101562 3.300781 -7.265625 3.96875 -7.265625 C 4.476562 -7.265625 4.945312 -7.148438 5.375 -6.921875 C 5.800781 -6.691406 6.160156 -6.375 6.453125 -5.96875 L 6.453125 -7.015625 Z M 3.96875 -0.6875 C 4.445312 -0.6875 4.875 -0.804688 5.25 -1.046875 C 5.625 -1.285156 5.914062 -1.617188 6.125 -2.046875 C 6.34375 -2.484375 6.453125 -2.972656 6.453125 -3.515625 C 6.453125 -4.046875 6.34375 -4.523438 6.125 -4.953125 C 5.914062 -5.390625 5.625 -5.726562 5.25 -5.96875 C 4.875 -6.207031 4.445312 -6.328125 3.96875 -6.328125 C 3.5 -6.328125 3.078125 -6.207031 2.703125 -5.96875 C 2.335938 -5.726562 2.050781 -5.394531 1.84375 -4.96875 C 1.632812 -4.539062 1.53125 -4.0625 1.53125 -3.53125 C 1.53125 -2.976562 1.632812 -2.484375 1.84375 -2.046875 C 2.050781 -1.617188 2.335938 -1.285156 2.703125 -1.046875 C 3.078125 -0.804688 3.5 -0.6875 3.96875 -0.6875 Z M 3.96875 -0.6875 "/></g></g></g><g fill="#000000" fill-opacity="1"><g transform="translate(127.778553, 229.082798)"><g><path d="M 3.421875 0.234375 C 2.742188 0.234375 2.144531 0.09375 1.625 -0.1875 C 1.113281 -0.476562 0.722656 -0.890625 0.453125 -1.421875 L 1.359375 -1.875 C 1.734375 -1.082031 2.460938 -0.6875 3.546875 -0.6875 C 4.054688 -0.6875 4.484375 -0.78125 4.828125 -0.96875 C 5.171875 -1.164062 5.34375 -1.460938 5.34375 -1.859375 C 5.34375 -2.265625 5.203125 -2.566406 4.921875 -2.765625 C 4.648438 -2.972656 4.171875 -3.109375 3.484375 -3.171875 C 2.523438 -3.242188 1.835938 -3.453125 1.421875 -3.796875 C 1.003906 -4.148438 0.796875 -4.617188 0.796875 -5.203125 C 0.796875 -5.859375 1.03125 -6.363281 1.5 -6.71875 C 1.96875 -7.082031 2.613281 -7.265625 3.4375 -7.265625 C 4.820312 -7.265625 5.765625 -6.710938 6.265625 -5.609375 L 5.359375 -5.15625 C 5.179688 -5.5625 4.929688 -5.859375 4.609375 -6.046875 C 4.285156 -6.234375 3.867188 -6.328125 3.359375 -6.328125 C 2.835938 -6.328125 2.4375 -6.234375 2.15625 -6.046875 C 1.882812 -5.859375 1.75 -5.585938 1.75 -5.234375 C 1.75 -4.898438 1.894531 -4.628906 2.1875 -4.421875 C 2.488281 -4.222656 3 -4.09375 3.71875 -4.03125 C 4.613281 -3.957031 5.273438 -3.738281 5.703125 -3.375 C 6.140625 -3.019531 6.359375 -2.554688 6.359375 -1.984375 C 6.359375 -1.515625 6.222656 -1.109375 5.953125 -0.765625 C 5.679688 -0.429688 5.320312 -0.179688 4.875 -0.015625 C 4.425781 0.148438 3.941406 0.234375 3.421875 0.234375 Z M 3.421875 0.234375 "/></g></g></g><g fill="#000000" fill-opacity="1"><g transform="translate(135.33856, 229.082798)"><g><path d="M 3.96875 -7.265625 C 4.601562 -7.265625 5.175781 -7.109375 5.6875 -6.796875 C 6.195312 -6.484375 6.59375 -6.054688 6.875 -5.515625 C 7.164062 -4.984375 7.3125 -4.390625 7.3125 -3.734375 C 7.3125 -3.546875 7.3125 -3.398438 7.3125 -3.296875 L 1.53125 -3.296875 C 1.570312 -2.578125 1.804688 -1.960938 2.234375 -1.453125 C 2.660156 -0.941406 3.242188 -0.6875 3.984375 -0.6875 C 4.585938 -0.6875 5.085938 -0.796875 5.484375 -1.015625 C 5.878906 -1.242188 6.195312 -1.5625 6.4375 -1.96875 L 7.25 -1.421875 C 6.914062 -0.898438 6.476562 -0.492188 5.9375 -0.203125 C 5.394531 0.0859375 4.753906 0.234375 4.015625 0.234375 C 3.335938 0.234375 2.734375 0.078125 2.203125 -0.234375 C 1.671875 -0.554688 1.253906 -1.003906 0.953125 -1.578125 C 0.660156 -2.148438 0.515625 -2.796875 0.515625 -3.515625 C 0.515625 -4.234375 0.660156 -4.875 0.953125 -5.4375 C 1.242188 -6.007812 1.648438 -6.457031 2.171875 -6.78125 C 2.703125 -7.101562 3.300781 -7.265625 3.96875 -7.265625 Z M 6.296875 -4.140625 C 6.203125 -4.867188 5.957031 -5.414062 5.5625 -5.78125 C 5.175781 -6.144531 4.644531 -6.328125 3.96875 -6.328125 C 3.320312 -6.328125 2.789062 -6.117188 2.375 -5.703125 C 1.957031 -5.285156 1.695312 -4.765625 1.59375 -4.140625 Z M 6.296875 -4.140625 "/></g></g></g><g fill="#000000" fill-opacity="1"><g transform="translate(143.813556, 229.082798)"><g><path d="M 7.46875 -10.890625 L 7.46875 0 L 6.453125 0 L 6.453125 -1.03125 C 6.160156 -0.632812 5.800781 -0.320312 5.375 -0.09375 C 4.957031 0.125 4.5 0.234375 4 0.234375 C 3.332031 0.234375 2.734375 0.078125 2.203125 -0.234375 C 1.671875 -0.554688 1.253906 -1.003906 0.953125 -1.578125 C 0.660156 -2.148438 0.515625 -2.800781 0.515625 -3.53125 C 0.515625 -4.25 0.660156 -4.890625 0.953125 -5.453125 C 1.242188 -6.015625 1.648438 -6.457031 2.171875 -6.78125 C 2.703125 -7.101562 3.300781 -7.265625 3.96875 -7.265625 C 4.476562 -7.265625 4.945312 -7.148438 5.375 -6.921875 C 5.800781 -6.691406 6.160156 -6.375 6.453125 -5.96875 L 6.453125 -10.890625 Z M 3.96875 -0.6875 C 4.445312 -0.6875 4.875 -0.804688 5.25 -1.046875 C 5.625 -1.285156 5.914062 -1.617188 6.125 -2.046875 C 6.34375 -2.484375 6.453125 -2.972656 6.453125 -3.515625 C 6.453125 -4.046875 6.34375 -4.523438 6.125 -4.953125 C 5.914062 -5.390625 5.625 -5.726562 5.25 -5.96875 C 4.875 -6.207031 4.445312 -6.328125 3.96875 -6.328125 C 3.5 -6.328125 3.078125 -6.207031 2.703125 -5.96875 C 2.335938 -5.726562 2.050781 -5.394531 1.84375 -4.96875 C 1.632812 -4.539062 1.53125 -4.0625 1.53125 -3.53125 C 1.53125 -2.976562 1.632812 -2.484375 1.84375 -2.046875 C 2.050781 -1.617188 2.335938 -1.285156 2.703125 -1.046875 C 3.078125 -0.804688 3.5 -0.6875 3.96875 -0.6875 Z M 3.96875 -0.6875 "/></g></g></g><g fill="#000000" fill-opacity="1"><g transform="translate(152.828553, 229.082798)"><g/></g></g><g fill="#000000" fill-opacity="1"><g transform="translate(156.773548, 229.082798)"><g><path d="M 3.453125 0 L 3.453125 -9.296875 L 0.21875 -9.296875 L 0.21875 -10.234375 L 7.78125 -10.234375 L 7.78125 -9.296875 L 4.5625 -9.296875 L 4.5625 0 Z M 3.453125 0 "/></g></g></g><g fill="#000000" fill-opacity="1"><g transform="translate(165.383545, 229.082798)"><g><path d="M 3.96875 -7.265625 C 4.601562 -7.265625 5.175781 -7.109375 5.6875 -6.796875 C 6.195312 -6.484375 6.59375 -6.054688 6.875 -5.515625 C 7.164062 -4.984375 7.3125 -4.390625 7.3125 -3.734375 C 7.3125 -3.546875 7.3125 -3.398438 7.3125 -3.296875 L 1.53125 -3.296875 C 1.570312 -2.578125 1.804688 -1.960938 2.234375 -1.453125 C 2.660156 -0.941406 3.242188 -0.6875 3.984375 -0.6875 C 4.585938 -0.6875 5.085938 -0.796875 5.484375 -1.015625 C 5.878906 -1.242188 6.195312 -1.5625 6.4375 -1.96875 L 7.25 -1.421875 C 6.914062 -0.898438 6.476562 -0.492188 5.9375 -0.203125 C 5.394531 0.0859375 4.753906 0.234375 4.015625 0.234375 C 3.335938 0.234375 2.734375 0.078125 2.203125 -0.234375 C 1.671875 -0.554688 1.253906 -1.003906 0.953125 -1.578125 C 0.660156 -2.148438 0.515625 -2.796875 0.515625 -3.515625 C 0.515625 -4.234375 0.660156 -4.875 0.953125 -5.4375 C 1.242188 -6.007812 1.648438 -6.457031 2.171875 -6.78125 C 2.703125 -7.101562 3.300781 -7.265625 3.96875 -7.265625 Z M 6.296875 -4.140625 C 6.203125 -4.867188 5.957031 -5.414062 5.5625 -5.78125 C 5.175781 -6.144531 4.644531 -6.328125 3.96875 -6.328125 C 3.320312 -6.328125 2.789062 -6.117188 2.375 -5.703125 C 1.957031 -5.285156 1.695312 -4.765625 1.59375 -4.140625 Z M 6.296875 -4.140625 "/></g></g></g><g fill="#000000" fill-opacity="1"><g transform="translate(173.858535, 229.082798)"><g><path d="M 3.421875 0.234375 C 2.742188 0.234375 2.144531 0.09375 1.625 -0.1875 C 1.113281 -0.476562 0.722656 -0.890625 0.453125 -1.421875 L 1.359375 -1.875 C 1.734375 -1.082031 2.460938 -0.6875 3.546875 -0.6875 C 4.054688 -0.6875 4.484375 -0.78125 4.828125 -0.96875 C 5.171875 -1.164062 5.34375 -1.460938 5.34375 -1.859375 C 5.34375 -2.265625 5.203125 -2.566406 4.921875 -2.765625 C 4.648438 -2.972656 4.171875 -3.109375 3.484375 -3.171875 C 2.523438 -3.242188 1.835938 -3.453125 1.421875 -3.796875 C 1.003906 -4.148438 0.796875 -4.617188 0.796875 -5.203125 C 0.796875 -5.859375 1.03125 -6.363281 1.5 -6.71875 C 1.96875 -7.082031 2.613281 -7.265625 3.4375 -7.265625 C 4.820312 -7.265625 5.765625 -6.710938 6.265625 -5.609375 L 5.359375 -5.15625 C 5.179688 -5.5625 4.929688 -5.859375 4.609375 -6.046875 C 4.285156 -6.234375 3.867188 -6.328125 3.359375 -6.328125 C 2.835938 -6.328125 2.4375 -6.234375 2.15625 -6.046875 C 1.882812 -5.859375 1.75 -5.585938 1.75 -5.234375 C 1.75 -4.898438 1.894531 -4.628906 2.1875 -4.421875 C 2.488281 -4.222656 3 -4.09375 3.71875 -4.03125 C 4.613281 -3.957031 5.273438 -3.738281 5.703125 -3.375 C 6.140625 -3.019531 6.359375 -2.554688 6.359375 -1.984375 C 6.359375 -1.515625 6.222656 -1.109375 5.953125 -0.765625 C 5.679688 -0.429688 5.320312 -0.179688 4.875 -0.015625 C 4.425781 0.148438 3.941406 0.234375 3.421875 0.234375 Z M 3.421875 0.234375 "/></g></g></g><g fill="#000000" fill-opacity="1"><g transform="translate(181.418536, 229.082798)"><g><path d="M 1.3125 0 L 1.3125 -6.09375 L 0.125 -6.09375 L 0.125 -7.015625 L 1.3125 -7.015625 L 1.3125 -9.34375 L 2.34375 -9.34375 L 2.34375 -7.015625 L 3.953125 -7.015625 L 3.953125 -6.09375 L 2.34375 -6.09375 L 2.34375 0 Z M 1.3125 0 "/></g></g></g><g fill="#000000" fill-opacity="1"><g transform="translate(186.143538, 229.082798)"><g/></g></g><g fill="#000000" fill-opacity="1"><g transform="translate(190.088533, 229.082798)"><g><path d="M 4.609375 0.234375 C 3.742188 0.234375 3 0.0234375 2.375 -0.390625 C 1.75 -0.816406 1.269531 -1.425781 0.9375 -2.21875 C 0.601562 -3.019531 0.4375 -3.972656 0.4375 -5.078125 C 0.4375 -6.203125 0.601562 -7.164062 0.9375 -7.96875 C 1.269531 -8.78125 1.75 -9.394531 2.375 -9.8125 C 3 -10.238281 3.742188 -10.453125 4.609375 -10.453125 C 5.398438 -10.453125 6.082031 -10.273438 6.65625 -9.921875 C 7.226562 -9.566406 7.71875 -9.046875 8.125 -8.359375 L 7.25 -7.71875 C 6.613281 -8.863281 5.734375 -9.4375 4.609375 -9.4375 C 3.660156 -9.4375 2.925781 -9.050781 2.40625 -8.28125 C 1.882812 -7.519531 1.625 -6.457031 1.625 -5.09375 C 1.625 -3.75 1.882812 -2.691406 2.40625 -1.921875 C 2.9375 -1.160156 3.671875 -0.78125 4.609375 -0.78125 C 5.128906 -0.78125 5.59375 -0.90625 6 -1.15625 C 6.414062 -1.40625 6.742188 -1.773438 6.984375 -2.265625 C 7.222656 -2.753906 7.34375 -3.351562 7.34375 -4.0625 L 4.9375 -4.0625 L 4.9375 -5 L 8.453125 -5 L 8.453125 -4.0625 C 8.453125 -3.132812 8.285156 -2.347656 7.953125 -1.703125 C 7.628906 -1.054688 7.175781 -0.570312 6.59375 -0.25 C 6.007812 0.0703125 5.347656 0.234375 4.609375 0.234375 Z M 4.609375 0.234375 "/></g></g></g><g fill="#000000" fill-opacity="1"><g transform="translate(199.778531, 229.082798)"><g><path d="M 3.96875 -7.265625 C 4.601562 -7.265625 5.175781 -7.109375 5.6875 -6.796875 C 6.195312 -6.484375 6.59375 -6.054688 6.875 -5.515625 C 7.164062 -4.984375 7.3125 -4.390625 7.3125 -3.734375 C 7.3125 -3.546875 7.3125 -3.398438 7.3125 -3.296875 L 1.53125 -3.296875 C 1.570312 -2.578125 1.804688 -1.960938 2.234375 -1.453125 C 2.660156 -0.941406 3.242188 -0.6875 3.984375 -0.6875 C 4.585938 -0.6875 5.085938 -0.796875 5.484375 -1.015625 C 5.878906 -1.242188 6.195312 -1.5625 6.4375 -1.96875 L 7.25 -1.421875 C 6.914062 -0.898438 6.476562 -0.492188 5.9375 -0.203125 C 5.394531 0.0859375 4.753906 0.234375 4.015625 0.234375 C 3.335938 0.234375 2.734375 0.078125 2.203125 -0.234375 C 1.671875 -0.554688 1.253906 -1.003906 0.953125 -1.578125 C 0.660156 -2.148438 0.515625 -2.796875 0.515625 -3.515625 C 0.515625 -4.234375 0.660156 -4.875 0.953125 -5.4375 C 1.242188 -6.007812 1.648438 -6.457031 2.171875 -6.78125 C 2.703125 -7.101562 3.300781 -7.265625 3.96875 -7.265625 Z M 6.296875 -4.140625 C 6.203125 -4.867188 5.957031 -5.414062 5.5625 -5.78125 C 5.175781 -6.144531 4.644531 -6.328125 3.96875 -6.328125 C 3.320312 -6.328125 2.789062 -6.117188 2.375 -5.703125 C 1.957031 -5.285156 1.695312 -4.765625 1.59375 -4.140625 Z M 6.296875 -4.140625 "/></g></g></g><g fill="#000000" fill-opacity="1"><g transform="translate(208.253522, 229.082798)"><g><path d="M 4.296875 -7.265625 C 4.785156 -7.265625 5.234375 -7.160156 5.640625 -6.953125 C 6.054688 -6.753906 6.382812 -6.457031 6.625 -6.0625 C 6.875 -5.675781 7 -5.21875 7 -4.6875 L 7 0 L 5.984375 0 L 5.984375 -4.25 C 5.984375 -5.632812 5.363281 -6.328125 4.125 -6.328125 C 3.40625 -6.328125 2.863281 -6.070312 2.5 -5.5625 C 2.144531 -5.050781 1.96875 -4.367188 1.96875 -3.515625 L 1.96875 0 L 0.9375 0 L 0.9375 -7.015625 L 1.96875 -7.015625 L 1.96875 -5.84375 C 2.207031 -6.300781 2.523438 -6.648438 2.921875 -6.890625 C 3.316406 -7.140625 3.773438 -7.265625 4.296875 -7.265625 Z M 4.296875 -7.265625 "/></g></g></g><g fill="#000000" fill-opacity="1"><g transform="translate(216.908516, 229.082798)"><g><path d="M 3.96875 -7.265625 C 4.601562 -7.265625 5.175781 -7.109375 5.6875 -6.796875 C 6.195312 -6.484375 6.59375 -6.054688 6.875 -5.515625 C 7.164062 -4.984375 7.3125 -4.390625 7.3125 -3.734375 C 7.3125 -3.546875 7.3125 -3.398438 7.3125 -3.296875 L 1.53125 -3.296875 C 1.570312 -2.578125 1.804688 -1.960938 2.234375 -1.453125 C 2.660156 -0.941406 3.242188 -0.6875 3.984375 -0.6875 C 4.585938 -0.6875 5.085938 -0.796875 5.484375 -1.015625 C 5.878906 -1.242188 6.195312 -1.5625 6.4375 -1.96875 L 7.25 -1.421875 C 6.914062 -0.898438 6.476562 -0.492188 5.9375 -0.203125 C 5.394531 0.0859375 4.753906 0.234375 4.015625 0.234375 C 3.335938 0.234375 2.734375 0.078125 2.203125 -0.234375 C 1.671875 -0.554688 1.253906 -1.003906 0.953125 -1.578125 C 0.660156 -2.148438 0.515625 -2.796875 0.515625 -3.515625 C 0.515625 -4.234375 0.660156 -4.875 0.953125 -5.4375 C 1.242188 -6.007812 1.648438 -6.457031 2.171875 -6.78125 C 2.703125 -7.101562 3.300781 -7.265625 3.96875 -7.265625 Z M 6.296875 -4.140625 C 6.203125 -4.867188 5.957031 -5.414062 5.5625 -5.78125 C 5.175781 -6.144531 4.644531 -6.328125 3.96875 -6.328125 C 3.320312 -6.328125 2.789062 -6.117188 2.375 -5.703125 C 1.957031 -5.285156 1.695312 -4.765625 1.59375 -4.140625 Z M 6.296875 -4.140625 "/></g></g></g><g fill="#000000" fill-opacity="1"><g transform="translate(225.383506, 229.082798)"><g><path d="M 4.390625 -7.265625 C 4.628906 -7.265625 4.859375 -7.226562 5.078125 -7.15625 L 5.078125 -6.21875 C 4.867188 -6.320312 4.640625 -6.375 4.390625 -6.375 C 3.960938 -6.375 3.5625 -6.253906 3.1875 -6.015625 C 2.820312 -5.773438 2.523438 -5.425781 2.296875 -4.96875 C 2.078125 -4.519531 1.96875 -3.984375 1.96875 -3.359375 L 1.96875 0 L 0.9375 0 L 0.9375 -7.015625 L 1.96875 -7.015625 L 1.96875 -5.609375 C 2.238281 -6.128906 2.578125 -6.535156 2.984375 -6.828125 C 3.398438 -7.117188 3.867188 -7.265625 4.390625 -7.265625 Z M 4.390625 -7.265625 "/></g></g></g><g fill="#000000" fill-opacity="1"><g transform="translate(231.068507, 229.082798)"><g><path d="M 7.46875 -7.015625 L 7.46875 0 L 6.453125 0 L 6.453125 -1.03125 C 6.160156 -0.632812 5.800781 -0.320312 5.375 -0.09375 C 4.957031 0.125 4.5 0.234375 4 0.234375 C 3.332031 0.234375 2.734375 0.078125 2.203125 -0.234375 C 1.671875 -0.554688 1.253906 -1.003906 0.953125 -1.578125 C 0.660156 -2.148438 0.515625 -2.800781 0.515625 -3.53125 C 0.515625 -4.25 0.660156 -4.890625 0.953125 -5.453125 C 1.242188 -6.015625 1.648438 -6.457031 2.171875 -6.78125 C 2.703125 -7.101562 3.300781 -7.265625 3.96875 -7.265625 C 4.476562 -7.265625 4.945312 -7.148438 5.375 -6.921875 C 5.800781 -6.691406 6.160156 -6.375 6.453125 -5.96875 L 6.453125 -7.015625 Z M 3.96875 -0.6875 C 4.445312 -0.6875 4.875 -0.804688 5.25 -1.046875 C 5.625 -1.285156 5.914062 -1.617188 6.125 -2.046875 C 6.34375 -2.484375 6.453125 -2.972656 6.453125 -3.515625 C 6.453125 -4.046875 6.34375 -4.523438 6.125 -4.953125 C 5.914062 -5.390625 5.625 -5.726562 5.25 -5.96875 C 4.875 -6.207031 4.445312 -6.328125 3.96875 -6.328125 C 3.5 -6.328125 3.078125 -6.207031 2.703125 -5.96875 C 2.335938 -5.726562 2.050781 -5.394531 1.84375 -4.96875 C 1.632812 -4.539062 1.53125 -4.0625 1.53125 -3.53125 C 1.53125 -2.976562 1.632812 -2.484375 1.84375 -2.046875 C 2.050781 -1.617188 2.335938 -1.285156 2.703125 -1.046875 C 3.078125 -0.804688 3.5 -0.6875 3.96875 -0.6875 Z M 3.96875 -0.6875 "/></g></g></g><g fill="#000000" fill-opacity="1"><g transform="translate(240.083499, 229.082798)"><g><path d="M 1.3125 0 L 1.3125 -6.09375 L 0.125 -6.09375 L 0.125 -7.015625 L 1.3125 -7.015625 L 1.3125 -9.34375 L 2.34375 -9.34375 L 2.34375 -7.015625 L 3.953125 -7.015625 L 3.953125 -6.09375 L 2.34375 -6.09375 L 2.34375 0 Z M 1.3125 0 "/></g></g></g><g fill="#000000" fill-opacity="1"><g transform="translate(244.808501, 229.082798)"><g><path d="M 1.5 0 L 1.5 -7.015625 L 2.515625 -7.015625 L 2.515625 0 Z M 2 -8.390625 C 1.769531 -8.390625 1.578125 -8.46875 1.421875 -8.625 C 1.265625 -8.78125 1.1875 -8.972656 1.1875 -9.203125 C 1.1875 -9.429688 1.265625 -9.617188 1.421875 -9.765625 C 1.578125 -9.921875 1.769531 -10 2 -10 C 2.21875 -10 2.40625 -9.921875 2.5625 -9.765625 C 2.726562 -9.617188 2.8125 -9.425781 2.8125 -9.1875 C 2.8125 -8.96875 2.726562 -8.78125 2.5625 -8.625 C 2.40625 -8.46875 2.21875 -8.390625 2 -8.390625 Z M 2 -8.390625 "/></g></g></g><g fill="#000000" fill-opacity="1"><g transform="translate(249.428503, 229.082798)"><g><path d="M 4 0.234375 C 3.332031 0.234375 2.734375 0.078125 2.203125 -0.234375 C 1.671875 -0.554688 1.253906 -1.003906 0.953125 -1.578125 C 0.660156 -2.148438 0.515625 -2.800781 0.515625 -3.53125 C 0.515625 -4.25 0.660156 -4.890625 0.953125 -5.453125 C 1.242188 -6.015625 1.648438 -6.457031 2.171875 -6.78125 C 2.703125 -7.101562 3.300781 -7.265625 3.96875 -7.265625 C 4.644531 -7.265625 5.242188 -7.101562 5.765625 -6.78125 C 6.296875 -6.457031 6.710938 -6.007812 7.015625 -5.4375 C 7.316406 -4.875 7.46875 -4.234375 7.46875 -3.515625 C 7.46875 -2.796875 7.316406 -2.148438 7.015625 -1.578125 C 6.722656 -1.003906 6.316406 -0.554688 5.796875 -0.234375 C 5.273438 0.078125 4.675781 0.234375 4 0.234375 Z M 3.96875 -0.6875 C 4.445312 -0.6875 4.875 -0.804688 5.25 -1.046875 C 5.625 -1.285156 5.914062 -1.617188 6.125 -2.046875 C 6.34375 -2.484375 6.453125 -2.972656 6.453125 -3.515625 C 6.453125 -4.046875 6.34375 -4.523438 6.125 -4.953125 C 5.914062 -5.390625 5.625 -5.726562 5.25 -5.96875 C 4.875 -6.207031 4.445312 -6.328125 3.96875 -6.328125 C 3.5 -6.328125 3.078125 -6.207031 2.703125 -5.96875 C 2.335938 -5.726562 2.050781 -5.394531 1.84375 -4.96875 C 1.632812 -4.539062 1.53125 -4.0625 1.53125 -3.53125 C 1.53125 -2.976562 1.632812 -2.484375 1.84375 -2.046875 C 2.050781 -1.617188 2.335938 -1.285156 2.703125 -1.046875 C 3.078125 -0.804688 3.5 -0.6875 3.96875 -0.6875 Z M 3.96875 -0.6875 "/></g></g></g><g fill="#000000" fill-opacity="1"><g transform="translate(257.993513, 229.082798)"><g><path d="M 4.296875 -7.265625 C 4.785156 -7.265625 5.234375 -7.160156 5.640625 -6.953125 C 6.054688 -6.753906 6.382812 -6.457031 6.625 -6.0625 C 6.875 -5.675781 7 -5.21875 7 -4.6875 L 7 0 L 5.984375 0 L 5.984375 -4.25 C 5.984375 -5.632812 5.363281 -6.328125 4.125 -6.328125 C 3.40625 -6.328125 2.863281 -6.070312 2.5 -5.5625 C 2.144531 -5.050781 1.96875 -4.367188 1.96875 -3.515625 L 1.96875 0 L 0.9375 0 L 0.9375 -7.015625 L 1.96875 -7.015625 L 1.96875 -5.84375 C 2.207031 -6.300781 2.523438 -6.648438 2.921875 -6.890625 C 3.316406 -7.140625 3.773438 -7.265625 4.296875 -7.265625 Z M 4.296875 -7.265625 "/></g></g></g><g fill="#000000" fill-opacity="1"><g transform="translate(266.648518, 229.082798)"><g/></g></g><g fill="#000000" fill-opacity="1"><g transform="translate(270.593525, 229.082798)"><g><path d="M 4.609375 0.234375 C 3.859375 0.234375 3.125 0.046875 2.40625 -0.328125 C 1.695312 -0.703125 1.109375 -1.207031 0.640625 -1.84375 L 1.5625 -2.65625 C 1.914062 -2.082031 2.375 -1.628906 2.9375 -1.296875 C 3.5 -0.960938 4.101562 -0.796875 4.75 -0.796875 C 5.457031 -0.796875 6 -0.953125 6.375 -1.265625 C 6.75 -1.578125 6.9375 -2.003906 6.9375 -2.546875 C 6.9375 -3.140625 6.738281 -3.59375 6.34375 -3.90625 C 5.945312 -4.21875 5.316406 -4.492188 4.453125 -4.734375 C 2.296875 -5.265625 1.21875 -6.25 1.21875 -7.6875 C 1.21875 -8.570312 1.503906 -9.253906 2.078125 -9.734375 C 2.660156 -10.210938 3.46875 -10.453125 4.5 -10.453125 C 5.25 -10.453125 5.921875 -10.3125 6.515625 -10.03125 C 7.109375 -9.75 7.640625 -9.320312 8.109375 -8.75 L 7.234375 -8 C 6.867188 -8.488281 6.472656 -8.847656 6.046875 -9.078125 C 5.617188 -9.316406 5.101562 -9.4375 4.5 -9.4375 C 3.875 -9.4375 3.359375 -9.285156 2.953125 -8.984375 C 2.554688 -8.691406 2.359375 -8.289062 2.359375 -7.78125 C 2.359375 -7.257812 2.539062 -6.847656 2.90625 -6.546875 C 3.28125 -6.242188 3.90625 -5.988281 4.78125 -5.78125 C 5.820312 -5.5 6.628906 -5.113281 7.203125 -4.625 C 7.773438 -4.132812 8.0625 -3.441406 8.0625 -2.546875 C 8.0625 -1.992188 7.921875 -1.507812 7.640625 -1.09375 C 7.367188 -0.675781 6.96875 -0.347656 6.4375 -0.109375 C 5.914062 0.117188 5.304688 0.234375 4.609375 0.234375 Z M 4.609375 0.234375 "/></g></g></g><g fill="#000000" fill-opacity="1"><g transform="translate(279.938519, 229.082798)"><g><path d="M 5.78125 -7.015625 L 6.734375 -7.015625 L 2.9375 3 L 1.921875 3 L 3.03125 0.140625 L 0.15625 -7.015625 L 1.21875 -7.015625 L 3.546875 -1.203125 Z M 5.78125 -7.015625 "/></g></g></g><g fill="#000000" fill-opacity="1"><g transform="translate(287.273517, 229.082798)"><g><path d="M 3.421875 0.234375 C 2.742188 0.234375 2.144531 0.09375 1.625 -0.1875 C 1.113281 -0.476562 0.722656 -0.890625 0.453125 -1.421875 L 1.359375 -1.875 C 1.734375 -1.082031 2.460938 -0.6875 3.546875 -0.6875 C 4.054688 -0.6875 4.484375 -0.78125 4.828125 -0.96875 C 5.171875 -1.164062 5.34375 -1.460938 5.34375 -1.859375 C 5.34375 -2.265625 5.203125 -2.566406 4.921875 -2.765625 C 4.648438 -2.972656 4.171875 -3.109375 3.484375 -3.171875 C 2.523438 -3.242188 1.835938 -3.453125 1.421875 -3.796875 C 1.003906 -4.148438 0.796875 -4.617188 0.796875 -5.203125 C 0.796875 -5.859375 1.03125 -6.363281 1.5 -6.71875 C 1.96875 -7.082031 2.613281 -7.265625 3.4375 -7.265625 C 4.820312 -7.265625 5.765625 -6.710938 6.265625 -5.609375 L 5.359375 -5.15625 C 5.179688 -5.5625 4.929688 -5.859375 4.609375 -6.046875 C 4.285156 -6.234375 3.867188 -6.328125 3.359375 -6.328125 C 2.835938 -6.328125 2.4375 -6.234375 2.15625 -6.046875 C 1.882812 -5.859375 1.75 -5.585938 1.75 -5.234375 C 1.75 -4.898438 1.894531 -4.628906 2.1875 -4.421875 C 2.488281 -4.222656 3 -4.09375 3.71875 -4.03125 C 4.613281 -3.957031 5.273438 -3.738281 5.703125 -3.375 C 6.140625 -3.019531 6.359375 -2.554688 6.359375 -1.984375 C 6.359375 -1.515625 6.222656 -1.109375 5.953125 -0.765625 C 5.679688 -0.429688 5.320312 -0.179688 4.875 -0.015625 C 4.425781 0.148438 3.941406 0.234375 3.421875 0.234375 Z M 3.421875 0.234375 "/></g></g></g><g fill="#000000" fill-opacity="1"><g transform="translate(294.833529, 229.082798)"><g><path d="M 1.3125 0 L 1.3125 -6.09375 L 0.125 -6.09375 L 0.125 -7.015625 L 1.3125 -7.015625 L 1.3125 -9.34375 L 2.34375 -9.34375 L 2.34375 -7.015625 L 3.953125 -7.015625 L 3.953125 -6.09375 L 2.34375 -6.09375 L 2.34375 0 Z M 1.3125 0 "/></g></g></g><g fill="#000000" fill-opacity="1"><g transform="translate(299.558543, 229.082798)"><g><path d="M 3.96875 -7.265625 C 4.601562 -7.265625 5.175781 -7.109375 5.6875 -6.796875 C 6.195312 -6.484375 6.59375 -6.054688 6.875 -5.515625 C 7.164062 -4.984375 7.3125 -4.390625 7.3125 -3.734375 C 7.3125 -3.546875 7.3125 -3.398438 7.3125 -3.296875 L 1.53125 -3.296875 C 1.570312 -2.578125 1.804688 -1.960938 2.234375 -1.453125 C 2.660156 -0.941406 3.242188 -0.6875 3.984375 -0.6875 C 4.585938 -0.6875 5.085938 -0.796875 5.484375 -1.015625 C 5.878906 -1.242188 6.195312 -1.5625 6.4375 -1.96875 L 7.25 -1.421875 C 6.914062 -0.898438 6.476562 -0.492188 5.9375 -0.203125 C 5.394531 0.0859375 4.753906 0.234375 4.015625 0.234375 C 3.335938 0.234375 2.734375 0.078125 2.203125 -0.234375 C 1.671875 -0.554688 1.253906 -1.003906 0.953125 -1.578125 C 0.660156 -2.148438 0.515625 -2.796875 0.515625 -3.515625 C 0.515625 -4.234375 0.660156 -4.875 0.953125 -5.4375 C 1.242188 -6.007812 1.648438 -6.457031 2.171875 -6.78125 C 2.703125 -7.101562 3.300781 -7.265625 3.96875 -7.265625 Z M 6.296875 -4.140625 C 6.203125 -4.867188 5.957031 -5.414062 5.5625 -5.78125 C 5.175781 -6.144531 4.644531 -6.328125 3.96875 -6.328125 C 3.320312 -6.328125 2.789062 -6.117188 2.375 -5.703125 C 1.957031 -5.285156 1.695312 -4.765625 1.59375 -4.140625 Z M 6.296875 -4.140625 "/></g></g></g><g fill="#000000" fill-opacity="1"><g transform="translate(308.033533, 229.082798)"><g><path d="M 8.421875 -7.265625 C 9.066406 -7.265625 9.601562 -7.035156 10.03125 -6.578125 C 10.46875 -6.117188 10.6875 -5.488281 10.6875 -4.6875 L 10.6875 0 L 9.65625 0 L 9.65625 -4.25 C 9.65625 -4.988281 9.515625 -5.519531 9.234375 -5.84375 C 8.953125 -6.164062 8.585938 -6.328125 8.140625 -6.328125 C 7.585938 -6.328125 7.160156 -6.113281 6.859375 -5.6875 C 6.554688 -5.269531 6.378906 -4.691406 6.328125 -3.953125 L 6.328125 0 L 5.3125 0 L 5.3125 -4.25 C 5.3125 -4.988281 5.171875 -5.519531 4.890625 -5.84375 C 4.609375 -6.164062 4.242188 -6.328125 3.796875 -6.328125 C 3.179688 -6.328125 2.722656 -6.070312 2.421875 -5.5625 C 2.117188 -5.050781 1.96875 -4.367188 1.96875 -3.515625 L 1.96875 0 L 0.9375 0 L 0.9375 -7.015625 L 1.96875 -7.015625 L 1.96875 -5.921875 C 2.195312 -6.347656 2.488281 -6.675781 2.84375 -6.90625 C 3.195312 -7.144531 3.601562 -7.265625 4.0625 -7.265625 C 4.570312 -7.265625 5.015625 -7.125 5.390625 -6.84375 C 5.773438 -6.570312 6.039062 -6.179688 6.1875 -5.671875 C 6.414062 -6.171875 6.71875 -6.5625 7.09375 -6.84375 C 7.476562 -7.125 7.921875 -7.265625 8.421875 -7.265625 Z M 8.421875 -7.265625 "/></g></g></g></svg>